<mxfile host="app.diagrams.net" modified="2024-05-17T00:50:49.912Z" agent="Mozilla/5.0 (Windows NT 10.0; Win64; x64) AppleWebKit/537.36 (KHTML, like Gecko) Chrome/125.0.0.0 Safari/537.36" version="24.4.3" etag="3KzCT9mTeNJS8yoxONMD" type="github">
  <diagram name="PÃ¡gina-1" id="AQ4RwCPlCd3ur997etTW">
    <mxGraphModel>
      <root>
        <mxCell id="0" />
        <mxCell id="1" parent="0" />
      </root>
    </mxGraphModel>
  </diagram>
</mxfile>
